<?xml version="1.0" encoding="utf-8"?>
<!-- Generator: Adobe Illustrator 16.0.4, SVG Export Plug-In . SVG Version: 6.00 Build 0)  -->
<!DOCTYPE svg PUBLIC "-//W3C//DTD SVG 1.1//EN" "http://www.w3.org/Graphics/SVG/1.1/DTD/svg11.dtd">
<svg version="1.1" id="Layer_1" xmlns="http://www.w3.org/2000/svg" xmlns:xlink="http://www.w3.org/1999/xlink" x="0px" y="0px"
	 width="8px" height="8px" viewBox="0 0 8 8" enable-background="new 0 0 8 8" xml:space="preserve">
<path d="M1,0C0.93,0,0.87,0.01,0.81,0.03c-0.39,0.08-0.7,0.39-0.78,0.78C0,0.87,0,0.93,0,1v5.5C0,7.33,0.67,8,1.5,8H7V7H1.5
	C1.22,7,1,6.78,1,6.5S1.22,6,1.5,6H7V0.5C7,0.22,6.779,0,6.5,0H6v3L5,2L4,3V0H1z"/>
</svg>
